<?xml version="1.0" encoding="utf-8"?>
<!-- Generator: Adobe Illustrator 26.4.1, SVG Export Plug-In . SVG Version: 6.00 Build 0)  -->
<svg version="1.1" id="レイヤー_1" xmlns="http://www.w3.org/2000/svg" xmlns:xlink="http://www.w3.org/1999/xlink" x="0px"
	 y="0px" viewBox="0 0 237.1 269.2" style="enable-background:new 0 0 237.1 269.2;" xml:space="preserve">
<style type="text/css">
	.st0{fill:#D67729;}
	.st1{fill:none;}
</style>
<path id="パス_7669" class="st0" d="M114.6,106.1l-30.3,52.5c-1.3,2.2-0.5,5,1.7,6.2c0.7,0.4,1.5,0.6,2.3,0.6h60.6
	c2.5,0,4.5-2,4.5-4.5c0-0.8-0.2-1.6-0.6-2.3l-30.3-52.5c-1.3-2.2-4-2.9-6.2-1.7C115.6,104.8,115,105.4,114.6,106.1 M121.1,147.6H116
	l-1-26.1h7.1L121.1,147.6z M115.2,153h6.7v6.6h-6.7V153z"/>
<rect id="長方形_727" x="84.9" y="104.5" class="st1" width="69.7" height="61.6"/>
<rect class="st1" width="237.1" height="269.2"/>
</svg>
